<?xml version="1.0" encoding="UTF-8"?>
<svg width="14px" height="8px" viewBox="0 0 14 8" version="1.1" xmlns="http://www.w3.org/2000/svg" xmlns:xlink="http://www.w3.org/1999/xlink">
    <title>路径</title>
    <g id="pc-效果" stroke="none" stroke-width="1" fill="none" fill-rule="evenodd">
        <g id="PC" transform="translate(-1542.000000, -49.000000)" fill="#000000" fill-rule="nonzero">
            <g id="connect-to-plug" transform="translate(1362.000000, 30.000000)">
                <path d="M187.001728,24.0909528 L182.125395,19.3634724 C181.664698,18.8948467 180.899372,18.8770192 180.415991,19.3236525 C180.401972,19.336605 180.388277,19.3498822 180.374917,19.3634724 C179.891536,19.8101057 179.873147,20.5520701 180.333843,21.0206958 C180.347204,21.0342861 180.360899,21.0475632 180.374917,21.0605157 L186.126499,26.6365276 C186.587196,27.1051533 187.352522,27.1229808 187.835903,26.6763475 C187.849921,26.663395 187.863617,26.6501178 187.876977,26.6365276 L193.628559,21.0605157 C194.116823,20.5966231 194.124741,19.8368312 193.646242,19.3634724 C193.167743,18.8901135 192.384028,18.882437 191.895764,19.3463296 C191.889811,19.351986 191.883916,19.3577006 191.878082,19.3634724 L187.001728,24.0909528 Z" id="路径"></path>
            </g>
        </g>
    </g>
</svg>