<?xml version="1.0" encoding="UTF-8"?>
<svg width="42px" height="42px" viewBox="0 0 42 42" version="1.1" xmlns="http://www.w3.org/2000/svg" xmlns:xlink="http://www.w3.org/1999/xlink">
    <title>close</title>
    <g id="pc" stroke="none" stroke-width="1" fill="none" fill-rule="evenodd">
        <g id="PC" transform="translate(-835.000000, -3042.000000)" fill="#B8B8B8" fill-rule="nonzero">
            <g id="close" transform="translate(835.000000, 3042.000000)">
                <path d="M20.9000252,2.22044605e-16 L20.9000243,2.22044605e-16 C9.35727261,2.22044605e-16 0,9.35727261 0,20.9000243 C0,32.442776 9.35727261,41.8000486 20.9000243,41.8000486 C32.442776,41.8000486 41.8000486,32.442776 41.8000486,20.9000243 L41.8000486,20.9000252 C41.8000486,9.35727352 32.442776,2.22044605e-16 20.9000243,2.22044605e-16 L20.9000252,2.22044605e-16 Z M29.9013443,27.1909145 L27.5121415,29.574252 L21.0015949,23.0805921 L14.4910482,29.5739082 L12.1018455,27.1905707 L18.6123921,20.6976413 L12.1018455,14.2047118 L14.4910482,11.8213743 L21.0015949,18.3150342 L27.5121415,11.8217181 L29.9013443,14.2050556 L23.3907977,20.6976413 L29.9013443,27.1909145 Z" id="形状"></path>
            </g>
        </g>
    </g>
</svg>