<?xml version="1.0" encoding="UTF-8"?>
<svg width="12px" height="12px" viewBox="0 0 12 12" version="1.1" xmlns="http://www.w3.org/2000/svg" xmlns:xlink="http://www.w3.org/1999/xlink">
    <title>close</title>
    <g id="pc" stroke="none" stroke-width="1" fill="none" fill-rule="evenodd">
        <g id="PC" transform="translate(-1518.000000, -11.000000)" fill="#FF6262" fill-rule="nonzero">
            <g id="close" transform="translate(1518.000000, 11.000000)">
                <path d="M6,5.17383945 L11.0597949,0.114044526 L11.0597949,0.114044505 C11.2118556,-0.0377554287 11.4581174,-0.0377554287 11.6101791,0.114044546 L11.8859554,0.389820898 L11.8859554,0.389820886 C12.0380149,0.541926345 12.0380149,0.7884891 11.8859554,0.94059456 L6.82616051,6 L11.8859554,11.0597949 L11.8859555,11.0597949 C12.0377554,11.2118556 12.0377554,11.4581174 11.8859554,11.6101791 L11.6101791,11.8859554 L11.6101791,11.8859554 C11.4580736,12.0380149 11.2115109,12.0380149 11.0594054,11.8859554 L6,6.82616052 L0.940205076,11.8859554 L0.940205081,11.8859554 C0.788144416,12.0377556 0.541882561,12.0377556 0.389820922,11.8859554 L0.11404457,11.6101791 L0.114044591,11.6101791 C-0.0380148568,11.4580737 -0.0380148568,11.2115109 0.11404455,11.0594054 L5.17383947,6 L0.11404455,0.940205103 L0.114044526,0.940205079 C-0.0377554076,0.788144414 -0.0377554076,0.541882559 0.114044573,0.38982092 L0.389820925,0.114044568 L0.389820901,0.114044592 C0.54192636,-0.038014856 0.788489115,-0.038014856 0.940594575,0.114044544 L6,5.17383947 L6,5.17383945 Z" id="路径"></path>
            </g>
        </g>
    </g>
</svg>