<?xml version="1.0" encoding="UTF-8"?>
<svg width="38px" height="38px" viewBox="0 0 38 38" version="1.1" xmlns="http://www.w3.org/2000/svg" xmlns:xlink="http://www.w3.org/1999/xlink">
    <title>完成、成功_1</title>
    <g id="pc" stroke="none" stroke-width="1" fill="none" fill-rule="evenodd">
        <g id="PC" transform="translate(-742.000000, -3027.000000)" fill="#6A95F1" fill-rule="nonzero">
            <g id="完成、成功_1" transform="translate(742.000000, 3027.000000)">
                <path d="M38.0001169,18.9993963 L38.0001169,19.0000299 C38.0001169,29.4934406 29.4934406,38.0000598 19.0000299,38.0000598 C8.50661927,38.0000598 -1.77635684e-15,29.4934406 -1.77635684e-15,19.0000299 C-1.77635684e-15,8.50661927 8.50661927,4.4408921e-16 19.0000299,4.4408921e-16 C24.6084466,4.4408921e-16 29.9303473,2.47781734 33.540457,6.76986335 L33.5404571,6.7698633 C33.286154,6.86861806 33.0547421,7.01835488 32.8604544,7.20986381 L30.3904531,9.67986512 L17.5804225,22.4898957 L10.5804183,15.5399071 L9.85041706,14.8099059 L9.85041718,14.809906 C9.05680922,14.1233891 7.85693127,14.2102033 7.17041445,15.0038134 C6.55301725,15.7175209 6.55301725,16.7762034 7.17041526,17.4899108 L16.1704453,26.4899408 L16.1704451,26.4899407 C16.877776,27.2272423 18.0488778,27.2515369 18.7861794,26.544209 C18.804642,26.5264969 18.8227352,26.5084037 18.8404473,26.4899411 L35.5404862,9.88993351 L35.5404862,9.88993352 C35.5724809,9.86123599 35.599512,9.827447 35.6204864,9.78993352 L35.6204867,9.78993405 C37.1870862,12.6062123 38.0063121,15.776777 38.0001169,18.9994799 L38.0001169,18.9993963 Z" id="路径"></path>
            </g>
        </g>
    </g>
</svg>