<?xml version="1.0" encoding="UTF-8"?>
<svg width="37px" height="37px" viewBox="0 0 37 37" version="1.1" xmlns="http://www.w3.org/2000/svg" xmlns:xlink="http://www.w3.org/1999/xlink">
    <title>问号</title>
    <g id="pc" stroke="none" stroke-width="1" fill="none" fill-rule="evenodd">
        <g id="PC" transform="translate(-395.000000, -491.000000)" fill="#CCCCCC" fill-rule="nonzero">
            <g id="banner" transform="translate(0.000000, 107.000000)">
                <g id="问号" transform="translate(395.000000, 384.000000)">
                    <path d="M18.333369,4.4408921e-16 C28.4570331,4.4408921e-16 36.666738,8.20785721 36.666738,18.333369 C36.666738,28.4588808 28.4570761,36.666738 18.333369,36.666738 C8.20970487,36.666738 1.77635684e-15,28.4588808 1.77635684e-15,18.333369 C1.77635684e-15,8.20785721 8.2096619,4.4408921e-16 18.333369,4.4408921e-16 Z M18.333369,3.6666695 C10.2465119,3.6666695 3.66669958,10.2465248 3.66669958,18.3333389 C3.66669958,26.420196 10.2465549,33.0000083 18.333369,33.0000083 C26.4202261,33.0000083 33.0000384,26.420153 33.0000384,18.3333389 C33.0000384,10.2464818 26.4201831,3.6666695 18.333369,3.6666695 Z M18.333369,24.2000397 C19.030035,24.2000397 19.6607053,24.4805414 20.1245363,24.9333767 L20.1685364,24.9333767 L20.1685364,24.9773767 L20.1685363,24.9773767 C21.140164,25.9724138 21.140164,27.561009 20.1685364,28.5560461 L20.1685364,28.6000461 L20.1263697,28.6000461 L20.1263698,28.600046 C19.1304304,29.5764561 17.5363051,29.5764561 16.5403657,28.6000462 L16.5018656,28.6000462 L16.5018656,28.5597129 L16.5018655,28.5597128 C15.5225077,27.5649807 15.5225077,25.9684406 16.5018658,24.9737086 L16.5018658,24.9333753 L16.5421991,24.9333753 C17.0060345,24.48054 17.6367004,24.2000397 18.3333665,24.2000397 L18.333369,24.2000397 Z M18.333369,8.29402254 C21.8460383,8.29402254 24.7060287,10.9688604 24.7060287,14.2578771 C24.7060287,17.5377157 22.7131917,18.8705348 21.3931901,19.7505359 C20.3280237,20.4618715 20.1666887,20.6415369 20.1666887,21.1255375 L20.1666887,21.1255375 C20.1666887,22.1380586 19.3458772,22.9588744 18.3333518,22.9588744 C17.3208307,22.9588744 16.5000149,22.1380629 16.5000149,21.1255375 C16.5000149,21.1255375 16.5000149,21.1255375 16.5000149,21.1255374 C16.5000149,18.6083693 18.2196821,17.4588679 19.356353,16.6998799 C20.5535196,15.902379 21.039355,15.5265438 21.039355,14.2578771 C21.039355,12.9910409 19.8238535,11.9607092 18.3333518,11.9607092 C17.0371851,11.9607092 15.918849,12.7472101 15.6750139,13.8288766 L15.6750139,13.8288767 C15.4522589,14.8165919 14.4709766,15.4367176 13.4832614,15.2139631 C12.4955462,14.9912081 11.8754204,14.0099257 12.098175,13.0222105 C12.7160105,10.2813726 15.3376788,8.29220501 18.3333346,8.29220501 L18.333369,8.29402254 Z" id="形状"></path>
                </g>
            </g>
        </g>
    </g>
</svg>