<?xml version="1.0" encoding="UTF-8"?>
<svg width="136px" height="43px" viewBox="0 0 136 43" version="1.1" xmlns="http://www.w3.org/2000/svg" xmlns:xlink="http://www.w3.org/1999/xlink">
    <title>编组 11</title>
    <defs>
        <filter color-interpolation-filters="auto" id="filter-1">
            <feColorMatrix in="SourceGraphic" type="matrix" values="0 0 0 0 0.800000 0 0 0 0 0.800000 0 0 0 0 0.800000 0 0 0 1.000000 0"></feColorMatrix>
        </filter>
    </defs>
    <g id="pc" stroke="none" stroke-width="1" fill="none" fill-rule="evenodd">
        <g id="PC" transform="translate(-386.000000, -3020.000000)">
            <g id="编组-10" transform="translate(-1.000000, 2978.000000)">
                <g id="编组-11" transform="translate(387.000000, 42.000000)">
                    <g filter="url(#filter-1)" id="编组">
                        <g transform="translate(0.000000, 3.000000)">
                            <path d="M4.41232657,31.2433225 L4.41232657,21.2237689 C4.41232657,12.6870123 11.4289856,5.76660365 20.0844731,5.76660365 C28.7399606,5.76660365 35.7566195,12.6870123 35.7566195,21.2237689 L35.7566195,31.0991801" id="形状" stroke="#3C6DD8" stroke-width="6.01111983" stroke-linecap="round" transform="translate(20.084473, 18.504963) rotate(-270.000000) translate(-20.084473, -18.504963) "></path>
                            <g id="编组-2" transform="translate(14.753104, 18.844392) scale(-1, 1) translate(-14.753104, -18.844392) translate(5.224049, 12.022240)" fill-rule="nonzero">
                                <path d="M16.9297908,13.6443046 C15.6528008,13.6443046 14.8014717,12.8046535 14.8014717,11.5451805 L14.8014717,2.09912406 C14.8014717,0.839651101 15.6528008,0 16.9297908,0 C18.2067807,0 19.0581098,0.839651101 19.0581098,2.09912406 L19.0581098,11.5451805 C19.0581098,12.8046535 18.2067807,13.6443046 16.9297908,13.6443046 Z" id="路径" fill="#F2BF20"></path>
                                <path d="M9.09371752,12.2130942 C7.81672757,12.2130942 6.96539844,11.3734431 6.96539844,10.1139701 L6.96539844,3.81658687 C6.96539844,2.55711391 7.81672757,1.71746281 9.09371752,1.71746281 C10.3707075,1.71746281 11.2220366,2.55711391 11.2220366,3.81658687 L11.2220366,10.1139701 C11.2220366,11.3734431 10.3707075,12.2130942 9.09371752,12.2130942 Z" id="路径" fill="#6A95F1"></path>
                                <path d="M2.12831908,10.781858 C0.851329129,10.781858 0,9.94220689 0,8.68273393 L0,5.53404968 C0,4.27457672 0.851329129,3.43492562 2.12831908,3.43492562 C3.40530903,3.43492562 4.25663816,4.27457672 4.25663816,5.53404968 L4.25663816,8.68273393 C4.25663816,9.94220689 3.40530903,10.781858 2.12831908,10.781858 Z" id="路径" fill="#8AA7E7"></path>
                            </g>
                        </g>
                    </g>
                    <text id="Dstar" font-family="GalanoGrotesqueDEMO-Bold, Galano Grotesque DEMO" font-size="32" font-weight="bold" fill="#333333">
                        <tspan x="47" y="32">Dstar</tspan>
                    </text>
                </g>
            </g>
        </g>
    </g>
</svg>