<?xml version="1.0" encoding="UTF-8"?>
<svg width="137px" height="44px" viewBox="0 0 137 44" version="1.1" xmlns="http://www.w3.org/2000/svg" xmlns:xlink="http://www.w3.org/1999/xlink">
    <title>logo</title>
    <g id="pc" stroke="none" stroke-width="1" fill="none" fill-rule="evenodd">
        <g id="PC" transform="translate(-379.000000, -31.000000)">
            <g id="logo" transform="translate(379.911115, 31.855541)">
                <g id="编组" transform="translate(0.000000, 0.000000)">
                    <path d="M5.06770903,36.3831139 L5.06770903,24.7152588 C5.06770903,14.7741333 13.1265835,6.71525884 23.067709,6.71525884 C33.0088345,6.71525884 41.067709,14.7741333 41.067709,24.7152588 L41.067709,36.2152588" id="形状" stroke="#3C6DD8" stroke-width="7" stroke-linecap="round" transform="translate(23.067709, 21.549186) rotate(-270.000000) translate(-23.067709, -21.549186) "></path>
                    <g id="编组-2" transform="translate(16.944448, 21.944454) scale(-1, 1) translate(-16.944448, -21.944454) translate(6.000000, 14.000000)" fill-rule="nonzero">
                        <path d="M19.4444478,15.8889083 C17.9777808,15.8889083 17,14.9111275 17,13.4444606 L17,2.44444777 C17,0.977780825 17.9777808,0 19.4444478,0 C20.9111147,0 21.8888955,0.977780825 21.8888955,2.44444777 L21.8888955,13.4444606 C21.8888955,14.9111275 20.9111147,15.8889083 19.4444478,15.8889083 Z" id="路径" fill="#F2BF20"></path>
                        <path d="M10.4444478,14.2222517 C8.97778083,14.2222517 8,13.2444709 8,11.777804 L8,4.44444777 C8,2.97778083 8.97778083,2 10.4444478,2 C11.9111147,2 12.8888955,2.97778083 12.8888955,4.44444777 L12.8888955,11.777804 C12.8888955,13.2444709 11.9111147,14.2222517 10.4444478,14.2222517 Z" id="路径" fill="#6A95F1"></path>
                        <path d="M2.44444777,12.555565 C0.977780825,12.555565 0,11.5777842 0,10.1111173 L0,6.44444777 C0,4.97778083 0.977780825,4 2.44444777,4 C3.91111471,4 4.88889553,4.97778083 4.88889553,6.44444777 L4.88889553,10.1111173 C4.88889553,11.5777842 3.91111471,12.555565 2.44444777,12.555565 Z" id="路径" fill="#8AA7E7"></path>
                    </g>
                </g>
                <text id="Dstar" font-family="GalanoGrotesqueDEMO-Bold, Galano Grotesque DEMO" font-size="32" font-weight="bold" fill="#000000">
                    <tspan x="47" y="32">Dstar</tspan>
                </text>
            </g>
        </g>
    </g>
</svg>