<?xml version="1.0" encoding="UTF-8"?>
<svg width="44px" height="44px" viewBox="0 0 44 44" version="1.1" xmlns="http://www.w3.org/2000/svg" xmlns:xlink="http://www.w3.org/1999/xlink">
    <title>勾选</title>
    <g id="pc" stroke="none" stroke-width="1" fill="none" fill-rule="evenodd">
        <g id="PC" transform="translate(-226.000000, -777.000000)" fill="#448BFB" fill-rule="nonzero">
            <g id="勾选" transform="translate(226.000000, 777.000000)">
                <path d="M22.0000256,0 C9.84844896,0 0,9.84844896 0,22.0000256 C0,34.1516022 9.84844896,44.0000512 22.0000256,44.0000512 C34.1516022,44.0000512 44.0000512,34.1516022 44.0000512,22.0000256 C44.0000512,9.84844896 34.1516022,0 22.0000256,0 Z M30.4949574,18.2359587 L21.1406496,27.5859696 C20.6379146,28.0887046 19.8215074,28.0887046 19.3187725,27.5859696 C19.3101787,27.5773758 19.3058818,27.573079 19.301585,27.5644852 C19.2929912,27.5601883 19.2886943,27.5515946 19.2801006,27.5472977 L13.5050938,21.7765878 C13.0023589,21.2738529 13.0023589,20.4574457 13.5050938,19.9547107 C14.0078288,19.4519758 14.824236,19.4519758 15.326971,19.9547107 L20.2254142,24.8531539 L28.6687834,16.4140816 C29.1715183,15.9113466 29.9879255,15.9113466 30.4906605,16.4140816 C30.9976923,16.9168166 30.9976923,17.7332238 30.4949574,18.2359587 L30.4949574,18.2359587 Z" id="形状"></path>
            </g>
        </g>
    </g>
</svg>