<?xml version="1.0" encoding="UTF-8"?>
<svg width="24px" height="24px" viewBox="0 0 24 24" version="1.1" xmlns="http://www.w3.org/2000/svg" xmlns:xlink="http://www.w3.org/1999/xlink">
    <title>star</title>
    <g id="pc" stroke="none" stroke-width="1" fill="none" fill-rule="evenodd">
        <g id="PC" transform="translate(-1012.000000, -596.000000)" fill="#FFCE00" fill-rule="nonzero">
            <g id="list" transform="translate(385.000000, 596.031592)">
                <g id="编组-6" transform="translate(0.000000, -0.000000)">
                    <g id="star" transform="translate(627.000000, 0.000000)">
                        <path d="M15.8250463,6.50312897 C15.9813412,6.82844637 16.290877,7.05633718 16.6516151,7.11167464 L23.0657976,8.0788271 C23.66735,8.17033926 24.079767,8.72536216 23.986957,9.31850629 C23.9516772,9.54397852 23.8453234,9.75278589 23.68297,9.91533 L18.9770416,14.6641604 C18.7295891,14.9138724 18.6188841,15.2656055 18.6794763,15.6095793 L19.825652,21.7167725 C19.9357359,22.3070374 19.53969,22.8735344 18.9410579,22.9820784 C18.7184028,23.0224508 18.4885401,22.9942333 18.2827203,22.9012625 L12.4967319,20.3040723 C12.2062175,20.1734111 11.8725089,20.1734111 11.5819944,20.3040723 L5.75191825,22.8903833 C5.19801451,23.1391804 4.54443677,22.8981194 4.29211047,22.3519562 C4.2003162,22.1532653 4.17135024,21.9319184 4.20898764,21.7167588 L5.31108012,15.674773 C5.37167259,15.3307991 5.26096661,14.979066 5.01351481,14.729354 L0.30758643,9.95878782 C-0.114240806,9.52612662 -0.100483315,8.83820818 0.338309999,8.42227699 C0.49951771,8.26946926 0.704054111,8.16863141 0.924757558,8.13315061 L7.33894011,7.16599815 C7.71167587,7.09975952 8.02380565,6.84944242 8.16550896,6.50311743 L11.0088987,0.613259559 C11.2742119,0.0731152205 11.9333702,-0.152687427 12.4811737,0.10891745 C12.7043619,0.215501686 12.8845702,0.393190929 12.9926651,0.613259556 L15.8250463,6.50312897 Z" id="路径"></path>
                    </g>
                </g>
            </g>
        </g>
    </g>
</svg>