<?xml version="1.0" encoding="UTF-8"?>
<svg width="16px" height="16px" viewBox="0 0 16 16" version="1.1" xmlns="http://www.w3.org/2000/svg" xmlns:xlink="http://www.w3.org/1999/xlink">
    <title>注意</title>
    <g id="pc" stroke="none" stroke-width="1" fill="none" fill-rule="evenodd">
        <g id="PC" transform="translate(-385.000000, -9.000000)" fill="#FF9191" fill-rule="nonzero">
            <g id="注意" transform="translate(385.000000, 9.000000)">
                <path d="M8,0 L8,0 C3.58171426,0 0,3.58172989 0,8 C0,12.4182857 3.58172989,16 8,16 C12.4182857,16 16,12.4182701 16,8 L16,8 C16,3.58171426 12.4182701,0 8,0 L8,0 Z M8.00000035,12.4377576 L8.00000031,12.4377576 C7.50974836,12.4377576 7.11232064,12.0403299 7.11232064,11.5500779 C7.11232064,11.059826 7.50974836,10.6623983 8.00000031,10.6623983 C8.49025227,10.6623983 8.88767998,11.059826 8.88767998,11.5500779 C8.88767998,11.5500779 8.88767998,11.5500779 8.88767998,11.5500779 L8.88767998,11.5500822 C8.88626665,12.039334 8.48925053,12.4352021 7.99999561,12.4351974 L8.00000035,12.4377576 Z M8.44351982,8.83968136 C8.44351982,9.3312007 8.239359,9.72736102 8.00000035,9.72736102 C7.76064014,9.72736102 7.55648088,9.33184143 7.55648088,8.83968136 L7.1129614,4.89343996 L7.1129614,4.89332232 C7.1129614,4.40307036 7.51038912,4.00564265 8.00064107,4.00564265 C8.49089302,4.00564265 8.88832074,4.40307036 8.88832074,4.89332232 C8.88832074,4.89340084 8.88832074,4.89347936 8.88832074,4.89355788 L8.44351982,8.83968136 Z" id="形状"></path>
            </g>
        </g>
    </g>
</svg>