<?xml version="1.0" encoding="UTF-8"?>
<svg width="44px" height="44px" viewBox="0 0 44 44" version="1.1" xmlns="http://www.w3.org/2000/svg" xmlns:xlink="http://www.w3.org/1999/xlink">
    <title>形状</title>
    <g id="pc" stroke="none" stroke-width="1" fill="none" fill-rule="evenodd">
        <g id="PC" transform="translate(-904.000000, -3040.000000)" fill="#F2BF20" fill-rule="nonzero">
            <g id="注意" transform="translate(904.000000, 3040.000000)">
                <path d="M21.9965031,-1.54216917e-15 L21.9965022,-1.54216917e-15 C9.84814818,-1.54216917e-15 3.55618313e-17,9.84819115 3.55618313e-17,21.9965022 C3.55618313e-17,34.1448561 9.84819115,43.9930043 21.9965022,43.9930043 C34.1448561,43.9930043 43.9930043,34.1448132 43.9930043,21.9965022 L43.9930043,21.9965022 C43.9930043,9.84814818 34.1448132,-1.54216917e-15 21.9965022,-1.54216917e-15 L21.9965031,-1.54216917e-15 Z M21.9965031,34.1983953 L21.996503,34.1983953 C20.6485245,34.1983953 19.555772,33.1056428 19.555772,31.7576643 C19.555772,30.4096858 20.6485245,29.3169333 21.996503,29.3169333 C23.3444815,29.3169333 24.437234,30.4096858 24.437234,31.7576643 C24.437234,31.7576643 24.437234,31.7576643 24.437234,31.7576643 L24.437234,31.757676 C24.433348,33.1029045 23.3417272,34.1913686 21.9964901,34.1913558 L21.9965031,34.1983953 Z M23.2159877,24.3052588 C23.2159877,25.656722 22.6546347,26.7459897 21.9965031,26.7459897 C21.3383672,26.7459897 20.7770185,25.6584838 20.7770185,24.3052588 L19.5575339,13.4548203 L19.5575339,13.4544969 C19.5575339,12.1065183 20.6502863,11.0137659 21.9982648,11.0137659 C23.3462433,11.0137659 24.4389958,12.1065183 24.4389958,13.4544969 C24.4389958,13.4547128 24.4389958,13.4549287 24.4389958,13.4551446 L23.2159877,24.3052588 Z" id="形状"></path>
            </g>
        </g>
    </g>
</svg>